HIERARCHY
ROOT hips
{
	OFFSET -0.003675 0.299928 -0.021708
	CHANNELS 6 Xposition Yposition Zposition Xrotation Yrotation Zrotation
	JOINT LowerBack
	{
		OFFSET 0.000919 0.177588 0.009275
		CHANNELS 3 Xrotation Yrotation Zrotation
		JOINT spine
		{
			OFFSET 0.000919 0.177588 0.009275
			CHANNELS 3 Xrotation Yrotation Zrotation
			JOINT chest
			{
				OFFSET 0.000456 0.100015 0.004638
				CHANNELS 3 Xrotation Yrotation Zrotation
				JOINT neck
				{
					OFFSET 0.000456 0.100015 0.004638
					CHANNELS 3 Xrotation Yrotation Zrotation
					JOINT head
					{
						OFFSET 0.000924 0.155147 0.009274
						CHANNELS 6 Xposition Yposition Zposition Xrotation Yrotation Zrotation
						End Site
						{
							OFFSET 0.000000 0.153400 0.000000
						}
					}
				}
				JOINT shoulder.L
				{
					OFFSET 0.019937 0.078966 0.057518
					CHANNELS 6 Xposition Yposition Zposition Yrotation Xrotation Zrotation
					JOINT upper_arm.L
					{
						OFFSET 0.177024 -0.020465 -0.095062
						CHANNELS 6 Xposition Yposition Zposition Xrotation Yrotation Zrotation
						JOINT forearm.L
						{
							OFFSET 0.247100 -0.135500 -0.061800
							CHANNELS 3 Xrotation Yrotation Zrotation
							JOINT hand.L
							{
								OFFSET 0.217000 -0.143000 0.039300
								CHANNELS 3 Xrotation Yrotation Zrotation
								JOINT palm.01.L
								{
									OFFSET 0.021770 -0.038291 0.012954
									CHANNELS 6 Xposition Yposition Zposition Yrotation Xrotation Zrotation
									JOINT f_index.01.L
									{
										OFFSET 0.053215 -0.044137 0.008236
										CHANNELS 3 Xrotation Yrotation Zrotation
										JOINT f_index.02.L
										{
											OFFSET 0.036108 -0.024723 -0.010656
											CHANNELS 3 Xrotation Yrotation Zrotation
											JOINT f_index.03.L
											{
												OFFSET 0.021342 -0.014948 -0.010846
												CHANNELS 3 Xrotation Yrotation Zrotation
												End Site
												{
													OFFSET 0.015600 -0.009860 -0.013421
												}
											}
										}
									}
									JOINT thumb.01.L
									{
										OFFSET -0.009090 -0.002348 -0.024223
										CHANNELS 6 Xposition Yposition Zposition Xrotation Yrotation Zrotation
										JOINT thumb.02.L
										{
											OFFSET 0.019713 -0.035076 -0.011120
											CHANNELS 3 Xrotation Yrotation Zrotation
											JOINT thumb.03.L
											{
												OFFSET 0.024877 -0.021748 -0.005176
												CHANNELS 3 Xrotation Yrotation Zrotation
												End Site
												{
													OFFSET 0.016125 -0.013029 -0.001569
												}
											}
										}
									}
								}
								JOINT palm.02.L
								{
									OFFSET 0.032823 -0.025104 0.012281
									CHANNELS 6 Xposition Yposition Zposition Yrotation Xrotation Zrotation
									JOINT f_middle.01.L
									{
										OFFSET 0.055723 -0.038469 0.008037
										CHANNELS 3 Xrotation Yrotation Zrotation
										JOINT f_middle.02.L
										{
											OFFSET 0.038167 -0.027473 -0.015582
											CHANNELS 3 Xrotation Yrotation Zrotation
											JOINT f_middle.03.L
											{
												OFFSET 0.021707 -0.016587 -0.017037
												CHANNELS 3 Xrotation Yrotation Zrotation
												End Site
												{
													OFFSET 0.014112 -0.010584 -0.014294
												}
											}
										}
									}
								}
								JOINT palm.03.L
								{
									OFFSET 0.039230 -0.011402 0.008390
									CHANNELS 6 Xposition Yposition Zposition Yrotation Xrotation Zrotation
									JOINT f_ring.01.L
									{
										OFFSET 0.061796 -0.031470 0.007910
										CHANNELS 3 Xrotation Yrotation Zrotation
										JOINT f_ring.02.L
										{
											OFFSET 0.033092 -0.023401 -0.019127
											CHANNELS 3 Xrotation Yrotation Zrotation
											JOINT f_ring.03.L
											{
												OFFSET 0.021392 -0.015362 -0.017824
												CHANNELS 3 Xrotation Yrotation Zrotation
												End Site
												{
													OFFSET 0.008670 -0.007297 -0.014686
												}
											}
										}
									}
								}
								JOINT palm.04.L
								{
									OFFSET 0.043417 0.002450 0.002889
									CHANNELS 6 Xposition Yposition Zposition Yrotation Xrotation Zrotation
									JOINT f_pinky.01.L
									{
										OFFSET 0.069986 -0.026156 0.003627
										CHANNELS 3 Xrotation Yrotation Zrotation
										JOINT f_pinky.02.L
										{
											OFFSET 0.018520 -0.012813 -0.016429
											CHANNELS 3 Xrotation Yrotation Zrotation
											JOINT f_pinky.03.L
											{
												OFFSET 0.013822 -0.009796 -0.014947
												CHANNELS 3 Xrotation Yrotation Zrotation
												End Site
												{
													OFFSET 0.007238 -0.006103 -0.011657
												}
											}
										}
									}
								}
							}
						}
					}
				}
				JOINT shoulder.R
				{
					OFFSET -0.016662 0.078957 0.057696
					CHANNELS 6 Xposition Yposition Zposition Yrotation Xrotation Zrotation
					JOINT upper_arm.R
					{
						OFFSET -0.176972 -0.020537 -0.095144
						CHANNELS 6 Xposition Yposition Zposition Xrotation Yrotation Zrotation
						JOINT forearm.R
						{
							OFFSET -0.247100 -0.135500 -0.061800
							CHANNELS 3 Xrotation Yrotation Zrotation
							JOINT hand.R
							{
								OFFSET -0.217000 -0.143000 0.039300
								CHANNELS 3 Xrotation Yrotation Zrotation
								JOINT palm.01.R
								{
									OFFSET -0.021773 -0.038278 0.012988
									CHANNELS 6 Xposition Yposition Zposition Yrotation Xrotation Zrotation
									JOINT f_index.01.R
									{
										OFFSET -0.053212 -0.044139 0.008249
										CHANNELS 3 Xrotation Yrotation Zrotation
										JOINT f_index.02.R
										{
											OFFSET -0.036049 -0.024835 -0.010634
											CHANNELS 3 Xrotation Yrotation Zrotation
											JOINT f_index.03.R
											{
												OFFSET -0.021371 -0.014881 -0.010866
												CHANNELS 3 Xrotation Yrotation Zrotation
												End Site
												{
													OFFSET -0.015584 -0.009883 -0.013422
												}
											}
										}
									}
									JOINT thumb.01.R
									{
										OFFSET 0.009113 -0.002381 -0.024211
										CHANNELS 6 Xposition Yposition Zposition Xrotation Yrotation Zrotation
										JOINT thumb.02.R
										{
											OFFSET -0.019694 -0.035097 -0.011088
											CHANNELS 3 Xrotation Yrotation Zrotation
											JOINT thumb.03.R
											{
												OFFSET -0.024867 -0.021762 -0.005168
												CHANNELS 3 Xrotation Yrotation Zrotation
												End Site
												{
													OFFSET -0.016120 -0.013036 -0.001565
												}
											}
										}
									}
								}
								JOINT palm.02.R
								{
									OFFSET -0.032828 -0.025095 0.012286
									CHANNELS 6 Xposition Yposition Zposition Yrotation Xrotation Zrotation
									JOINT f_middle.01.R
									{
										OFFSET -0.055721 -0.038472 0.008040
										CHANNELS 3 Xrotation Yrotation Zrotation
										JOINT f_middle.02.R
										{
											OFFSET -0.038101 -0.027593 -0.015557
											CHANNELS 3 Xrotation Yrotation Zrotation
											JOINT f_middle.03.R
											{
												OFFSET -0.021730 -0.016530 -0.017054
												CHANNELS 3 Xrotation Yrotation Zrotation
												End Site
												{
													OFFSET -0.014096 -0.010608 -0.014293
												}
											}
										}
									}
								}
								JOINT palm.03.R
								{
									OFFSET -0.039192 -0.011488 0.008390
									CHANNELS 6 Xposition Yposition Zposition Yrotation Xrotation Zrotation
									JOINT f_ring.01.R
									{
										OFFSET -0.061839 -0.031387 0.007876
										CHANNELS 3 Xrotation Yrotation Zrotation
										JOINT f_ring.02.R
										{
											OFFSET -0.033068 -0.023437 -0.019125
											CHANNELS 3 Xrotation Yrotation Zrotation
											JOINT f_ring.03.R
											{
												OFFSET -0.021371 -0.015393 -0.017822
												CHANNELS 3 Xrotation Yrotation Zrotation
												End Site
												{
													OFFSET -0.008654 -0.007321 -0.014684
												}
											}
										}
									}
								}
								JOINT palm.04.R
								{
									OFFSET -0.043421 0.002443 0.002845
									CHANNELS 6 Xposition Yposition Zposition Yrotation Xrotation Zrotation
									JOINT f_pinky.01.R
									{
										OFFSET -0.069983 -0.026169 0.003599
										CHANNELS 3 Xrotation Yrotation Zrotation
										JOINT f_pinky.02.R
										{
											OFFSET -0.018501 -0.012842 -0.016428
											CHANNELS 3 Xrotation Yrotation Zrotation
											JOINT f_pinky.03.R
											{
												OFFSET -0.013806 -0.009821 -0.014946
												CHANNELS 3 Xrotation Yrotation Zrotation
												End Site
												{
													OFFSET -0.007226 -0.006121 -0.011655
												}
											}
										}
									}
								}
							}
						}
					}
				}
			}
		}
	}
	JOINT pelvis.L
	{
		OFFSET 0.000000 0.000000 0.000000
		CHANNELS 6 Xposition Yposition Zposition Xrotation Yrotation Zrotation
		JOINT thigh.L
		{
			OFFSET 0.101675 0.001054 -0.000000
			CHANNELS 3 Xrotation Yrotation Zrotation
			JOINT shin.L
			{
				OFFSET 0.000000 -0.534800 0.041000
				CHANNELS 3 Xrotation Yrotation Zrotation
				JOINT foot.L
				{
					OFFSET 0.000000 -0.452000 -0.044800
					CHANNELS 3 Xrotation Yrotation Zrotation
					JOINT toe.L
					{
						OFFSET -0.000000 -0.068500 0.109600
						CHANNELS 3 Xrotation Yrotation Zrotation
						End Site
						{
							OFFSET -0.000000 0.000000 0.067200
						}
					}
				}
				JOINT heel.L
				{
					OFFSET 0.000000 -0.452000 -0.044800
					CHANNELS 3 Xrotation Yrotation Zrotation
					JOINT heel.02.L
					{
						OFFSET -0.038000 -0.085200 0.016200
						CHANNELS 6 Xposition Yposition Zposition Xrotation Yrotation Zrotation
						End Site
						{
							OFFSET 0.080000 -0.000000 0.000000
						}
					}
				}
			}
		}
	}
	JOINT pelvis.R
	{
		OFFSET 0.000000 0.000000 0.000000
		CHANNELS 6 Xposition Yposition Zposition Xrotation Yrotation Zrotation
		JOINT thigh.R
		{
			OFFSET -0.094325 0.001054 0.000000
			CHANNELS 3 Xrotation Yrotation Zrotation
			JOINT shin.R
			{
				OFFSET 0.000000 -0.534800 0.041000
				CHANNELS 3 Xrotation Yrotation Zrotation
				JOINT foot.R
				{
					OFFSET 0.000000 -0.452000 -0.044800
					CHANNELS 3 Xrotation Yrotation Zrotation
					JOINT toe.R
					{
						OFFSET -0.000000 -0.068500 0.109600
						CHANNELS 3 Xrotation Yrotation Zrotation
						End Site
						{
							OFFSET -0.000000 0.000000 0.067200
						}
					}
				}
				JOINT heel.R
				{
					OFFSET 0.000000 -0.452000 -0.044800
					CHANNELS 3 Xrotation Yrotation Zrotation
					JOINT heel.02.R
					{
						OFFSET 0.038000 -0.085200 0.016200
						CHANNELS 6 Xposition Yposition Zposition Xrotation Yrotation Zrotation
						End Site
						{
							OFFSET -0.080000 0.000000 -0.000000
						}
					}
				}
			}
		}
	}
}
MOTION
Frames: 4
Frame Time: 0.041667
-0.003675 0.299928 -0.021708 0.000000 -0.000000 0.000000 -0.000001 0.000000 0.000000 -0.000000 0.000000 0.000000 -0.000000 0.000000 0.000000 -0.000000 -0.000000 -0.000000 0.000924 0.155147 0.009274 -0.000001 -0.000000 -0.000000 0.019937 0.078966 0.057518 0.000001 0.000001 -0.000005 0.177024 -0.020465 -0.095062 -0.000006 -0.000003 0.000015 -0.000009 -0.000004 -0.000009 -0.000000 0.000000 0.000001 0.021770 -0.038291 0.012954 0.000001 -0.000001 0.000001 -0.000001 -0.000001 -0.000002 -0.000001 -0.000000 0.000007 -0.000000 0.000000 0.000003 -0.009090 -0.002348 -0.024224 -0.000002 0.000001 0.000001 0.000001 -0.000001 0.000001 -0.000000 0.000000 -0.000001 0.032823 -0.025104 0.012281 0.000000 -0.000000 0.000000 0.000001 0.000004 -0.000003 -0.000001 -0.000000 -0.000000 -0.000001 -0.000003 0.000003 0.039230 -0.011402 0.008390 -0.000000 -0.000000 0.000008 0.000001 0.000001 -0.000000 -0.000001 0.000003 -0.000001 0.000002 0.000002 -0.000000 0.043417 0.002450 0.002889 -0.000000 0.000001 0.000002 -0.000001 -0.000003 0.000001 -0.000000 0.000003 -0.000000 -0.000000 -0.000003 0.000001 -0.016662 0.078956 0.057696 -0.000001 0.000002 0.000011 -0.176972 -0.020537 -0.095144 0.000001 -0.000003 -0.000005 -0.000006 0.000005 -0.000014 -0.000001 -0.000000 0.000000 -0.021773 -0.038278 0.012988 0.000000 -0.000001 -0.000003 -0.000001 0.000001 -0.000003 -0.000001 -0.000000 0.000001 0.000001 0.000002 0.000007 0.009113 -0.002381 -0.024211 0.000002 -0.000001 0.000004 -0.000000 0.000001 0.000002 0.000000 0.000000 -0.000003 -0.032828 -0.025095 0.012286 0.000001 -0.000001 -0.000001 -0.000001 0.000003 -0.000003 -0.000002 0.000004 -0.000001 0.000001 -0.000002 -0.000000 -0.039192 -0.011488 0.008390 0.000000 0.000000 0.000001 -0.000000 0.000003 -0.000003 -0.000001 0.000001 0.000002 -0.000001 0.000000 -0.000003 -0.043421 0.002443 0.002844 -0.000000 -0.000001 0.000000 -0.000007 0.000003 -0.000002 -0.000003 -0.000000 -0.000000 0.000001 -0.000000 0.000001 -0.000000 0.000000 -0.000000 -0.000001 -0.000000 0.000001 0.000009 -0.000202 0.000014 -0.000026 0.000202 -0.000015 0.000000 -0.000000 -0.000000 0.000002 -0.000000 -0.000000 0.000000 0.000000 -0.000000 -0.038000 -0.085200 0.016200 0.000000 0.000000 0.000000 0.000000 -0.000000 -0.000000 -0.000001 0.000000 -0.000004 0.000008 -0.000013 0.000005 -0.000012 0.000013 -0.000001 -0.000003 -0.000000 -0.000000 0.000000 -0.000000 -0.000000 0.000002 -0.000000 -0.000000 0.038000 -0.085200 0.016200 0.000002 -0.000000 0.000000 
-0.004315 0.283520 -0.023771 4.840774 168.496013 -0.780517 -0.000001 0.000000 -0.000000 -0.000000 -0.000001 0.000000 0.000000 0.000000 0.000000 0.000000 -0.000001 -0.000000 0.000924 0.155148 0.009274 16.368297 -0.016005 -4.937629 0.019937 0.078966 0.057518 -1.826436 5.148343 28.928983 0.177024 -0.020465 -0.095062 -33.444284 14.134919 -63.212718 -49.457198 -31.980442 -29.147416 -0.000001 -0.000001 -0.000000 0.021770 -0.038291 0.012954 0.000001 -0.000002 -0.000004 -0.000002 0.000000 -0.000000 0.000000 0.000001 0.000005 -0.000000 0.000001 -0.000000 -0.009090 -0.002348 -0.024224 -0.000002 -0.000001 -0.000001 0.000000 0.000000 -0.000000 0.000000 0.000000 0.000001 0.032823 -0.025104 0.012281 0.000000 -0.000000 0.000005 -0.000001 -0.000001 -0.000000 -0.000005 -0.000005 0.000003 -0.000000 -0.000003 0.000001 0.039230 -0.011402 0.008390 0.000001 -0.000001 0.000004 0.000003 0.000002 -0.000002 0.000001 0.000006 0.000001 -0.000001 -0.000002 0.000003 0.043417 0.002450 0.002889 -0.000000 0.000001 -0.000000 -0.000003 -0.000004 0.000001 -0.000002 -0.000001 -0.000001 0.000001 0.000000 -0.000003 -0.016662 0.078957 0.057696 -1.460954 4.794966 -26.384275 -0.176972 -0.020537 -0.095144 -8.127203 -10.847662 64.955946 -4.626984 7.428260 15.111865 -0.000001 -0.000000 0.000004 -0.021773 -0.038278 0.012988 0.000001 -0.000001 -0.000007 0.000001 0.000002 0.000001 -0.000002 0.000001 -0.000003 0.000002 0.000004 0.000007 0.009113 -0.002381 -0.024212 0.000003 -0.000002 0.000002 0.000001 -0.000001 0.000002 -0.000001 0.000002 -0.000006 -0.032828 -0.025095 0.012286 0.000001 -0.000001 -0.000005 0.000002 0.000000 0.000004 -0.000000 0.000001 0.000001 0.000000 0.000002 -0.000005 -0.039192 -0.011488 0.008390 -0.000001 0.000001 -0.000000 0.000001 0.000001 0.000000 0.000004 -0.000003 0.000003 -0.000002 0.000001 0.000001 -0.043421 0.002443 0.002845 -0.000001 -0.000002 -0.000005 -0.000003 0.000007 -0.000001 -0.000003 -0.000002 -0.000004 0.000000 0.000001 -0.000002 0.000000 0.000000 -0.000000 -1.209444 0.104221 -2.468861 9.544170 -0.383164 -5.287132 18.893299 0.067878 -0.682689 -0.000003 -0.000000 0.000000 0.000003 0.000000 0.000000 -0.000002 0.000001 0.000000 -0.038000 -0.085200 0.016200 -0.000000 0.000002 -0.000001 -0.000000 0.000000 -0.000000 -1.180601 0.103281 -1.234726 -14.702821 0.331578 2.943805 51.003242 0.844530 -8.552017 0.000000 -0.000000 0.000000 0.000004 -0.000000 -0.000001 0.000005 -0.000000 0.000000 0.038000 -0.085200 0.016200 0.000002 -0.000000 -0.000000 
-0.004422 0.285421 -0.023485 3.943233 168.938268 -0.290695 -0.000001 0.000000 -0.000000 -0.000000 -0.000002 -0.000000 -0.000000 0.000000 -0.000000 0.000001 -0.000000 -0.000000 0.000924 0.155148 0.009274 17.710850 -0.016794 -6.435826 0.019937 0.078966 0.057518 -1.529565 5.565306 29.497091 0.177025 -0.020466 -0.095062 -38.733347 14.263679 -61.767853 -78.281727 -13.409288 -52.591388 -0.000001 -0.000000 0.000001 0.021770 -0.038291 0.012954 0.000001 -0.000000 0.000005 -0.000002 -0.000002 0.000003 -0.000001 -0.000000 0.000007 -0.000003 0.000003 -0.000002 -0.009090 -0.002348 -0.024223 0.000003 -0.000002 0.000001 -0.000002 -0.000001 0.000003 0.000001 -0.000003 0.000010 0.032823 -0.025104 0.012281 -0.000001 0.000001 0.000009 -0.000000 0.000002 -0.000002 -0.000002 -0.000002 0.000001 -0.000002 -0.000001 -0.000001 0.039230 -0.011402 0.008390 0.000001 0.000000 0.000008 0.000001 -0.000000 -0.000000 0.000001 0.000004 0.000003 0.000001 -0.000003 0.000002 0.043417 0.002450 0.002889 -0.000000 0.000002 -0.000000 -0.000000 -0.000002 -0.000004 0.000000 -0.000001 -0.000001 0.000002 -0.000002 -0.000003 -0.016662 0.078957 0.057696 -0.810439 4.881237 -26.293308 -0.176972 -0.020537 -0.095144 -6.633910 -10.708383 65.409894 -3.943411 6.892494 14.266452 0.000002 0.000001 0.000004 -0.021773 -0.038278 0.012988 -0.000001 -0.000002 -0.000003 -0.000001 0.000002 -0.000005 -0.000002 -0.000000 -0.000003 -0.000000 -0.000001 0.000004 0.009114 -0.002381 -0.024211 -0.000001 -0.000001 -0.000003 0.000002 -0.000002 -0.000001 0.000002 -0.000001 -0.000001 -0.032828 -0.025095 0.012286 0.000001 -0.000001 0.000001 -0.000002 -0.000000 -0.000003 0.000003 0.000001 -0.000002 -0.000002 0.000002 -0.000003 -0.039192 -0.011488 0.008390 -0.000000 0.000000 0.000001 -0.000001 -0.000001 -0.000002 -0.000001 -0.000001 -0.000002 -0.000002 -0.000001 0.000006 -0.043421 0.002443 0.002845 -0.000001 -0.000003 -0.000001 -0.000006 0.000000 0.000003 -0.000003 -0.000008 0.000000 -0.000001 0.000001 -0.000002 0.000000 0.000000 -0.000000 -1.173888 0.113881 -2.617429 10.019736 -0.454116 -6.244962 18.559519 0.068349 -0.687441 -0.000002 0.000000 -0.000000 -0.000003 -0.000001 -0.000001 0.000007 -0.000002 -0.000001 -0.038000 -0.085200 0.016200 0.000001 0.000000 -0.000001 0.000000 0.000000 0.000000 -1.145574 0.112884 -1.383301 -17.592593 0.400722 3.657915 56.792415 0.676367 -6.839418 -0.000002 0.000000 0.000000 -0.000001 -0.000000 0.000000 0.000002 0.000000 0.000000 0.038000 -0.085200 0.016200 0.000001 -0.000000 -0.000001 
-0.004121 0.290312 -0.021612 4.336427 168.265795 -0.263808 -0.000001 -0.000000 0.000000 -0.000000 -0.000002 -0.000000 -0.000000 0.000000 0.000000 0.000000 0.000001 0.000000 0.000924 0.155148 0.009274 18.514437 -0.017259 -7.944534 0.019937 0.078966 0.057518 -2.906636 6.142786 30.841665 0.177025 -0.020465 -0.095062 -45.820724 12.778343 -57.383609 -43.003892 -42.359273 -14.510747 -0.000000 -0.000004 0.000000 0.021770 -0.038291 0.012954 0.000001 0.000001 0.000001 0.000001 0.000001 0.000003 -0.000000 -0.000002 0.000008 -0.000000 0.000003 -0.000002 -0.009090 -0.002348 -0.024224 0.000002 0.000003 0.000001 -0.000001 -0.000000 0.000001 -0.000000 0.000002 -0.000002 0.032823 -0.025104 0.012281 -0.000001 -0.000000 0.000002 0.000001 0.000002 -0.000005 -0.000004 0.000001 0.000003 0.000000 0.000003 -0.000001 0.039230 -0.011402 0.008390 -0.000000 0.000002 0.000006 -0.000001 0.000002 0.000001 -0.000000 0.000001 -0.000001 -0.000001 0.000003 0.000001 0.043417 0.002450 0.002889 -0.000002 0.000001 -0.000003 -0.000000 -0.000003 -0.000002 0.000001 0.000003 -0.000003 0.000001 0.000001 -0.000001 -0.016662 0.078956 0.057696 -0.267809 5.753052 -28.281988 -0.176972 -0.020537 -0.095144 -14.324537 -10.846878 63.969974 -3.209609 6.074574 16.842092 -0.000005 0.000000 0.000000 -0.021773 -0.038278 0.012988 -0.000001 -0.000001 0.000005 0.000000 0.000003 -0.000004 0.000002 0.000001 0.000001 0.000001 0.000002 -0.000001 0.009114 -0.002381 -0.024212 -0.000000 -0.000003 -0.000003 0.000003 -0.000003 0.000000 0.000003 -0.000001 -0.000001 -0.032828 -0.025095 0.012286 0.000001 0.000003 0.000004 0.000000 0.000000 0.000004 0.000000 -0.000003 0.000001 -0.000001 0.000004 -0.000007 -0.039192 -0.011488 0.008390 -0.000002 0.000002 0.000005 -0.000001 0.000005 0.000000 0.000003 -0.000003 0.000003 -0.000004 0.000000 -0.000005 -0.043421 0.002443 0.002844 0.000001 0.000001 0.000004 -0.000003 0.000007 -0.000003 -0.000002 -0.000001 0.000002 0.000002 0.000000 0.000004 0.000000 0.000000 -0.000000 -1.123543 0.061627 -1.916362 9.780965 -0.488680 -6.669598 18.567606 0.120516 -1.213782 -0.000002 0.000000 -0.000000 -0.000003 -0.000002 -0.000000 0.000000 0.000002 0.000000 -0.038000 -0.085200 0.016200 0.000000 -0.000001 0.000001 -0.000000 0.000000 -0.000000 -1.097766 0.061041 -0.682211 -17.328467 0.454892 4.442218 55.120310 0.710720 -7.188655 0.000003 -0.000001 0.000000 0.000005 0.000000 0.000000 0.000002 -0.000001 -0.000000 0.038000 -0.085200 0.016200 0.000003 -0.000001 0.000001 
